<?xml version="1.0" encoding="UTF-8"?><svg id="Layer_2" xmlns="http://www.w3.org/2000/svg" viewBox="0 0 60 60"><defs><style>.cls-1{fill:none;stroke:#000;stroke-linejoin:round;}</style></defs><g id="Layer_1-2"><path d="m30,1c15.99,0,29,13.01,29,29s-13.01,29-29,29S1,45.99,1,30,14.01,1,30,1m0-1C13.43,0,0,13.43,0,30s13.43,30,30,30,30-13.43,30-30S46.57,0,30,0h0Z"/><polygon class="cls-1" points="30 10 33.25 20.49 42.36 13.82 38.51 24.12 50 23.82 40.51 30 50 36.18 38.51 35.88 42.36 46.18 33.25 39.51 30 50 26.75 39.51 17.64 46.18 21.49 35.88 10 36.18 19.49 30 10 23.82 21.49 24.12 17.64 13.82 26.75 20.49 30 10"/></g></svg>